<svg id="레이어_1" data-name="레이어 1" xmlns="http://www.w3.org/2000/svg" xmlns:xlink="http://www.w3.org/1999/xlink" viewBox="0 0 17.42 17.42"><defs><style>.cls-1{fill:none;}.cls-2{clip-path:url(#clip-path);}</style><clipPath id="clip-path" transform="translate(0 0)"><rect class="cls-1" width="17.42" height="17.42"/></clipPath></defs><title>Vector Smart Object</title><g class="cls-2"><path d="M15.86,1.55H12.75V.31a.31.31,0,1,0-.62,0v2.8a.31.31,0,0,0,.62,0V2.18h3.11a.93.93,0,0,1,.93.93v2.8H.62V3.11a.93.93,0,0,1,.93-.93H4V1.55H1.55A1.56,1.56,0,0,0,0,3.11V15.86a1.56,1.56,0,0,0,1.56,1.56H15.86a1.56,1.56,0,0,0,1.55-1.56V3.11a1.56,1.56,0,0,0-1.56-1.56m.93,14.31a.93.93,0,0,1-.93.93H1.55a.93.93,0,0,1-.93-.93V6.53H16.79v9.33Z" transform="translate(0 0)"/><path d="M5,3.42a.31.31,0,0,0,.31-.31V2.18h6.22V1.55H5.29V.31a.31.31,0,0,0-.62,0v2.8A.31.31,0,0,0,5,3.42" transform="translate(0 0)"/></g></svg>